<?xml version="1.0" encoding="UTF-8" standalone="no"?>
<!-- Created with Inkscape (http://www.inkscape.org/) -->

<svg
   xmlns:dc="http://purl.org/dc/elements/1.1/"
   xmlns:cc="http://creativecommons.org/ns#"
   xmlns:rdf="http://www.w3.org/1999/02/22-rdf-syntax-ns#"
   xmlns:svg="http://www.w3.org/2000/svg"
   xmlns="http://www.w3.org/2000/svg"
   xmlns:sodipodi="http://sodipodi.sourceforge.net/DTD/sodipodi-0.dtd"
   xmlns:inkscape="http://www.inkscape.org/namespaces/inkscape"
   id="svg2"
   version="1.1"
   inkscape:version="0.48.4 r9939"
   width="269.12906"
   height="313.05063"
   sodipodi:docname="Logo Kemenhub.png">
  <metadata
     id="metadata8">
    <rdf:RDF>
      <cc:Work
         rdf:about="">
        <dc:format>image/svg+xml</dc:format>
        <dc:type
           rdf:resource="http://purl.org/dc/dcmitype/StillImage" />
        <dc:title></dc:title>
      </cc:Work>
    </rdf:RDF>
  </metadata>
  <defs
     id="defs6" />
  <sodipodi:namedview
     pagecolor="#ffffff"
     bordercolor="#666666"
     borderopacity="1"
     objecttolerance="10"
     gridtolerance="10"
     guidetolerance="10"
     inkscape:pageopacity="0"
     inkscape:pageshadow="2"
     inkscape:window-width="1024"
     inkscape:window-height="712"
     id="namedview4"
     showgrid="false"
     fit-margin-top="0"
     fit-margin-left="0"
     fit-margin-right="0"
     fit-margin-bottom="0"
     inkscape:zoom="0.71084337"
     inkscape:cx="364.4958"
     inkscape:cy="206.27558"
     inkscape:window-x="-4"
     inkscape:window-y="-4"
     inkscape:window-maximized="1"
     inkscape:current-layer="g2987" />
  <g
     id="g2987"
     transform="translate(-13.716064,-5.7673181)">
    <path
       style="fill:#ffc412;fill-opacity:1"
       d="m 144.85602,317.29402 c -0.8435,-0.98671 -2.30656,-4.32909 -3.25126,-7.42752 -2.45351,-8.04712 -10.93231,-21.35396 -18.14026,-28.46981 C 117.34593,275.3563 110.30543,271.32195 89.758854,262.08268 73.571674,254.80371 51.558118,237.16121 40.369277,222.5 34.404745,214.68442 25.518943,199.09225 22.613247,191.34299 21.820706,189.22934 20.398854,185.475 19.453575,183 c -1.669916,-4.3723 -2.39313,-7.08076 -4.672848,-17.5 -1.407638,-6.43348 -1.424013,-44.46078 -0.02196,-51 1.572691,-7.33508 4.805243,-18.488657 6.520997,-22.5 0.823372,-1.925 2.559759,-5.962576 3.858639,-8.972392 C 29.717823,72.415987 43.908412,52.302774 53.160453,43.310194 67.794018,29.087009 93.691686,14.507479 112,10.185475 c 2.475,-0.5842675 5.625,-1.3637076 7,-1.7320887 6.90547,-1.8500688 15.77508,-2.7008776 28,-2.6858733 17.94413,0.022024 28.12794,1.5060142 41.5,6.0474 22.6782,7.701915 36.17454,15.954943 53.34091,32.618031 10.72674,10.41225 19.05673,22.14079 26.90237,37.878233 5.54456,11.121751 6.66044,13.935051 8.4044,21.188823 3.01731,12.55013 3.75459,17.42004 5.45289,36.01783 0.52613,5.76165 0.41862,6.13448 -2.52552,8.75772 -3.68438,3.28279 -3.74479,3.78145 -0.77128,6.36688 2.1089,1.83367 2.241,2.50449 1.56165,7.93034 -1.57237,12.55829 -2.05685,13.78213 -5.75534,14.53855 -3.90122,0.79789 -4.47625,1.53831 -6.73216,8.66852 -1.63621,5.17155 -1.62645,5.32671 0.4758,7.56446 2.59421,2.7614 2.62093,5.17479 0.10138,9.1557 -1.0443,1.65 -2.87186,4.8 -4.06125,7 -2.60496,4.81838 -3.7397,5.65287 -6.02423,4.43022 -3.24415,-1.73622 -4.79975,-0.9394 -8.83808,4.52708 -4.37746,5.92555 -4.83081,7.63447 -2.53154,9.5427 2.63448,2.18642 1.649,4.4101 -4.77691,10.77889 -6.45307,6.39571 -8.56251,7.32445 -10.72309,4.72111 -1.82736,-2.20183 -3.7608,-1.86198 -9.17595,1.61291 -6.0708,3.89562 -7.05267,5.54431 -5.30944,8.91533 0.73664,1.42452 1.03471,3.05485 0.66237,3.62297 -0.37234,0.56813 -4.41593,2.99461 -8.98577,5.3922 l -8.30878,4.35924 -2.9919,-3.20132 C 196.24498,262.4406 194.57758,261 194.1852,261 c -1.07574,0 -11.35643,3.8379 -11.99723,4.4787 -0.30715,0.30714 -0.81259,2.45524 -1.12321,4.77354 -0.53059,3.96009 -0.80676,4.26864 -4.56476,5.10019 -2.2,0.4868 -6.91861,0.94415 -10.48581,1.01633 -6.40632,0.12963 -6.4921,0.0958 -7,-2.76182 -0.65308,-3.67452 -3.3288,-5.52856 -5.76419,-3.99409 -1.56296,0.98478 -1.80344,3.65623 -2.25,24.99489 -0.48459,23.15579 -0.56335,23.90132 -2.55517,24.18628 -1.13035,0.16171 -2.74531,-0.51329 -3.58881,-1.5 z m -0.89589,-67.74598 c 3.12327,-3.76332 -0.37398,-6.15825 -9.38913,-6.42973 -4.02858,-0.12131 -5.03337,-0.36576 -17.071,-4.15323 -23.998927,-7.5509 -44.499081,-26.01765 -57.365165,-51.67512 -3.974036,-7.925 -7.002916,-11.10756 -9.249671,-9.71899 -2.247966,1.38932 2.153554,12.61475 9.485364,24.19103 5.862125,9.25578 22.308102,26.42223 30.629472,31.9713 10.66262,7.11033 31.23946,15.2529 38.61869,15.28201 2.13472,0.008 4.55631,0.45153 5.38131,0.98469 2.26082,1.46106 7.5958,1.19195 8.96013,-0.45196 z M 172.5,180 c 0,-0.80994 -0.7875,-1.62427 -1.75,-1.80963 -1.22785,-0.23646 -1.75,0.30348 -1.75,1.80963 0,1.50615 0.52215,2.04609 1.75,1.80963 0.9625,-0.18536 1.75,-0.99969 1.75,-1.80963 z m -14.59952,-25.0182 c 2.42027,-1.63999 4.78277,-2.9818 5.25,-2.9818 0.46724,0 0.84952,-0.675 0.84952,-1.5 0,-1.88267 -9.96401,-2.13599 -11.8,-0.3 -1.96357,1.96357 -1.4216,7.84851 0.71667,7.7818 0.32083,-0.01 2.56355,-1.36001 4.98381,-3 z"
       id="path2991"
       inkscape:connector-curvature="0" />
    <path
       style="fill:#301d6e"
       d="M 142.16008,296.76008 C 141.52204,296.12204 141,294.94027 141,294.13393 c 0,-2.74518 -9.04434,-15.98851 -13.87618,-20.31842 -5.79269,-5.19095 -16.90139,-11.65312 -27.854839,-16.20376 C 71.739564,246.17458 47.188037,223.2064 33.57502,196.15443 30.311881,189.66988 24,172.36936 24,169.90982 c 0,-1.65104 3.41008,-0.82184 9.896827,2.40655 6.20159,3.08646 6.470552,3.38202 8.812398,9.68363 6.697184,18.02128 14.395188,30.28975 27.160644,43.28649 17.128704,17.43905 37.651301,28.2785 60.130131,31.75905 9.37136,1.45103 12.45395,2.169 13.75,3.20254 1.45102,1.15711 1.83858,36.27012 0.41008,37.15298 -0.46195,0.28551 -1.36195,-0.003 -2,-0.64098 z M 152.25,247.86746 c -0.90541,-0.91806 -1.25,-6.15868 -1.25,-19.0103 0,-15.82465 0.21187,-18.10192 1.9597,-21.06429 2.06736,-3.5039 10.38169,-9.11935 16.12663,-10.89181 13.23524,-4.08341 23.43581,-4.96084 27.91367,-2.40106 3.93042,2.24683 6,1.89082 6,-1.03212 0,-5.39264 -2.46409,-8.88094 -8.28766,-11.73247 C 191.6398,180.23094 188.22971,179 187.13438,179 c -2.31261,0 -4.72994,-2.15036 -5.63974,-5.01689 -1.16902,-3.68327 -6.21877,-5.35182 -17.49464,-5.78065 -5.775,-0.21962 -10.92453,-0.80206 -11.44341,-1.29429 -2.50319,-2.3747 15.29188,-13.69209 25.94341,-16.49961 1.65,-0.43491 19.65,-0.81725 40,-0.84965 l 37,-0.0589 -0.3242,6 c -0.34145,6.31944 -0.58063,7.33599 -4.66706,19.83544 -5.23906,16.02506 -12.70024,27.7984 -26.30559,41.50881 -13.55135,13.65599 -26.07395,21.50991 -43.6895,27.40117 -11.4991,3.8457 -26.18675,5.72795 -28.26365,3.62204 z M 134,242.94017 c -31.45947,-4.3802 -58.120107,-24.2805 -73.456166,-54.8299 -4.006837,-7.9816 -3.803733,-9.06428 1.706166,-9.09496 1.5125,-0.008 2.75,-0.44948 2.75,-0.98013 C 65,176.83226 61.679913,175 59.500201,175 c -2.396072,0 -16.02918,-6.48809 -21.909666,-10.42697 -6.545619,-4.38439 -15.025342,-13.06048 -14.149675,-14.47734 1.072866,-1.73593 118.95521,-1.5283 120.39959,0.21206 0.59694,0.71927 1.21454,6.00677 1.37244,11.75 L 145.5,172.5 159.60119,173 c 15.07123,0.5344 16.27343,0.92308 18.96724,6.13232 1.03842,2.00809 2.47515,2.96603 5.18406,3.45648 5.00926,0.90694 9.46712,3.24941 8.98217,4.71986 -0.24468,0.74192 -3.7582,1.41006 -9.31378,1.77114 -14.32118,0.93079 -23.22285,4.03618 -30.55303,10.65856 C 145.78421,206.138 145,208.7815 145,226.26016 c 0,15.64154 -0.51134,17.91898 -3.95,17.59282 -0.8525,-0.0809 -4.025,-0.49162 -7.05,-0.91281 z M 172.5,180 c 0,-0.80994 -0.7875,-1.62427 -1.75,-1.80963 -1.22785,-0.23646 -1.75,0.30348 -1.75,1.80963 0,1.50615 0.52215,2.04609 1.75,1.80963 0.9625,-0.18536 1.75,-0.99969 1.75,-1.80963 z M 22.2,139.8 c -1.436826,-1.43683 -1.632205,-15.72044 -0.276704,-20.229 0.507813,-1.68905 1.449164,-5.546 2.091891,-8.571 2.445528,-11.509891 9.718111,-29.339419 14.553022,-35.678314 3.117833,-4.087689 4.879698,-4.13397 12.422612,-0.32632 C 57.883,78.474528 70.320066,83.527842 77.5,85.766333 c 7.984629,2.489371 7.936902,2.362233 5.570129,14.837957 -1.450734,7.6471 -2.06749,14.9357 -2.068579,24.44571 -0.0011,9.20368 -0.386464,13.93491 -1.20155,14.75 -1.711325,1.71133 -55.888675,1.71133 -57.6,0 z m 66,0 c -1.876166,-1.87617 -1.610488,-32.79791 0.346598,-40.339901 2.235403,-8.614537 2.952599,-9.102112 11.177686,-7.598977 C 115.74081,94.788142 132.36202,97 138.34085,97 c 2.34253,0 4.79915,0.54 5.45915,1.2 0.85012,0.850124 1.2,6.80635 1.2,20.42857 0,16.14719 -0.25182,19.48039 -1.57143,20.8 C 142.07988,140.77726 138.13939,141 115.62857,141 96.561905,141 89.072331,140.67233 88.2,139.8 z m 64.05,0.54581 C 150.49885,139.62787 150.45178,99.948225 152.2,98.2 c 0.66,-0.66 3.67041,-1.2 6.6898,-1.2 3.0194,0 7.9919,-0.466912 11.05,-1.037583 3.05811,-0.570671 9.3852,-1.714922 14.0602,-2.542779 4.675,-0.827857 10.74418,-1.925691 13.48707,-2.439631 3.68317,-0.690121 5.27085,-0.613572 6.07245,0.292779 2.78846,3.152838 5.71375,24.646484 5.27079,38.727214 L 208.5,140.5 181,140.67915 c -15.125,0.0985 -28.0625,-0.0515 -28.75,-0.33334 z m 62.43127,0.002 C 214.30657,139.97324 214,133.33945 214,125.60618 c 0,-12.8021 -1.12595,-22.26309 -3.96547,-33.320504 -1.03852,-4.044113 -0.75957,-4.264159 10.46547,-8.255585 14.34431,-5.100584 16.20151,-5.854633 23.61486,-9.587934 4.27643,-2.153574 7.75821,-3.299832 8.91147,-2.9338 1.86268,0.591191 11.88896,19.541368 14.10018,26.650067 3.99456,12.841786 6.61855,26.994766 7.20132,38.841576 l 0.17217,3.5 -29.56873,0.2646 c -16.2628,0.14553 -29.8753,-0.042 -30.25,-0.41667 z M 126.84667,90.513333 C 126.579,90.245667 123.0165,89.581376 118.93,89.037131 101.89503,86.768395 95.510011,85.319452 93.877096,83.35191 92.672307,81.900228 92.826752,81.422761 99.06998,67.298117 c 2.70576,-6.121501 12.41131,-21.531324 15.94063,-25.309476 2.86401,-3.065933 3.31195,-3.212158 7.76437,-2.534596 2.59876,0.395475 7.98113,1.069701 11.96083,1.498279 3.9797,0.428579 7.9172,1.344734 8.75,2.0359 C 144.75477,44.041367 145,47.836647 145,66.422445 145,82.338321 144.66119,88.938812 143.8,89.8 c -1.1558,1.155797 -15.89087,1.775794 -16.95333,0.713333 z M 152.2,89.8 c -1.74779,-1.747791 -1.70109,-46.158208 0.05,-47.545212 1.29328,-1.024379 13.85885,-2.579018 21.75,-2.690955 l 4.5,-0.06383 6.72802,10 c 7.20235,10.705023 16.06935,29.42242 15.57349,32.874181 -0.21665,1.508138 -1.28662,2.291394 -3.80151,2.782834 -1.925,0.376168 -6.65,1.336624 -10.5,2.134346 C 168.31247,91.059825 154.47209,92.072085 152.2,89.8 z M 75.5,79.114125 C 57.658175,72.831165 46,67.086298 46,64.577239 46,63.84109 51.439041,57.784148 58.086758,51.117367 70.204864,38.964511 83.894431,29 88.472311,29 c 1.130758,0 4.52457,0.934231 7.541806,2.076068 3.017236,1.141837 7.398383,2.759138 9.735883,3.594002 2.3375,0.834864 4.25,1.968779 4.25,2.519811 0,0.551032 -2.41445,4.671231 -5.36544,9.155998 -6.122987,9.305408 -11.920409,20.453244 -14.249246,27.399813 -1.68597,5.028993 -3.973884,8.276935 -5.790302,8.219962 C 83.992756,81.946764 79.9,80.663576 75.5,79.114125 z M 203.53662,71.75 c -3.84404,-9.679985 -9.44681,-19.950142 -15.2881,-28.023834 -2.72946,-3.772594 -3.20991,-5.067767 -2.29075,-6.175283 1.5076,-1.816543 17.59241,-8.553754 20.39219,-8.541383 4.61918,0.02041 24.09266,14.280899 33.65004,24.642025 6.89739,7.477442 8.73931,10.752736 7.13445,12.686468 -1.24111,1.495446 -18.58459,9.094133 -28.70103,12.57476 -10.43869,3.591501 -10.67041,3.480085 -14.8968,-7.162753 z M 134.5,35.418707 c -12.15553,-1.768979 -16.79678,-2.798701 -28.54619,-6.333346 -1.95041,-0.586752 -4.38603,-1.680919 -5.41248,-2.431484 -4.030974,-2.947518 -1.21854,-4.448875 19.95867,-10.654502 11.97443,-3.508906 42.18246,-3.857822 52.5,-0.606398 3.025,0.953285 7.075,2.198198 9,2.766473 9.97113,2.943558 15.07371,5.214984 14.7944,6.58576 -0.34197,1.678305 -8.86393,5.272303 -16.7944,7.082769 -3.025,0.690584 -7.075,1.649798 -9,2.131587 -4.05591,1.015113 -22.55029,3.128778 -25.5,2.914314 -1.1,-0.07998 -6.05,-0.734805 -11,-1.455173 z"
       id="path2989"
       inkscape:connector-curvature="0" />
  </g>
</svg>
